PathFileType	4	(X/Y/Z)	Kaydara	
DataRate	CameraRate	NumFrames	NumMarkers	Units	OrigDataRate	OrigDataStartFrame	OrigNumFrames	
240.00	240.00	4	72	mm	240.00	135	359	
Frame#	Time	Hips			RightUpLeg			RightLeg			RightFoot			RightFoot_End			LeftUpLeg			LeftLeg			LeftFoot			LeftFoot_End			Spine			Spine1			Spine2			Spine3			Neck			Head			Head_End			RightShoulder			RightArm			RightForeArm			RightHand			RightHandThumb1			RightHandThumb2			RightHandThumb3			RightHandThumb3_End			RightInHandIndex			RightHandIndex1			RightHandIndex2			RightHandIndex3			RightHandIndex3_End			RightInHandMiddle			RightHandMiddle1			RightHandMiddle2			RightHandMiddle3			RightHandMiddle3_End			RightInHandRing			RightHandRing1			RightHandRing2			RightHandRing3			RightHandRing3_End			RightInHandPinky			RightHandPinky1			RightHandPinky2			RightHandPinky3			RightHandPinky3_End			LeftShoulder			LeftArm			LeftForeArm			LeftHand			LeftHandThumb1			LeftHandThumb2			LeftHandThumb3			LeftHandThumb3_End			LeftInHandIndex			LeftHandIndex1			LeftHandIndex2			LeftHandIndex3			LeftHandIndex3_End			LeftInHandMiddle			LeftHandMiddle1			LeftHandMiddle2			LeftHandMiddle3			LeftHandMiddle3_End			LeftInHandRing			LeftHandRing1			LeftHandRing2			LeftHandRing3			LeftHandRing3_End			LeftInHandPinky			LeftHandPinky1			LeftHandPinky2			LeftHandPinky3			LeftHandPinky3_End			
		X1	Y1	Z1	X2	Y2	Z2	X3	Y3	Z3	X4	Y4	Z4	X5	Y5	Z5	X6	Y6	Z6	X7	Y7	Z7	X8	Y8	Z8	X9	Y9	Z9	X10	Y10	Z10	X11	Y11	Z11	X12	Y12	Z12	X13	Y13	Z13	X14	Y14	Z14	X15	Y15	Z15	X16	Y16	Z16	X17	Y17	Z17	X18	Y18	Z18	X19	Y19	Z19	X20	Y20	Z20	X21	Y21	Z21	X22	Y22	Z22	X23	Y23	Z23	X24	Y24	Z24	X25	Y25	Z25	X26	Y26	Z26	X27	Y27	Z27	X28	Y28	Z28	X29	Y29	Z29	X30	Y30	Z30	X31	Y31	Z31	X32	Y32	Z32	X33	Y33	Z33	X34	Y34	Z34	X35	Y35	Z35	X36	Y36	Z36	X37	Y37	Z37	X38	Y38	Z38	X39	Y39	Z39	X40	Y40	Z40	X41	Y41	Z41	X42	Y42	Z42	X43	Y43	Z43	X44	Y44	Z44	X45	Y45	Z45	X46	Y46	Z46	X47	Y47	Z47	X48	Y48	Z48	X49	Y49	Z49	X50	Y50	Z50	X51	Y51	Z51	X52	Y52	Z52	X53	Y53	Z53	X54	Y54	Z54	X55	Y55	Z55	X56	Y56	Z56	X57	Y57	Z57	X58	Y58	Z58	X59	Y59	Z59	X60	Y60	Z60	X61	Y61	Z61	X62	Y62	Z62	X63	Y63	Z63	X64	Y64	Z64	X65	Y65	Z65	X66	Y66	Z66	X67	Y67	Z67	X68	Y68	Z68	X69	Y69	Z69	X70	Y70	Z70	X71	Y71	Z71	X72	Y72	Z72	

135	0.558	3198.941	914.58397	126.699	3253.943202720209	896.8015846302528	53.1238552646579	3158.7214341487584	500.37728014468587	-43.2205989615802	3141.4020729095755	108.90128467083892	-118.91989035615651	2989.8493000669964	32.19454115748017	-31.250328098215217	3158.283013739666	906.1952979008416	211.5875922199742	3066.776394529976	504.28559512813126	285.7681006657888	2993.4151570119116	79.90918470633943	375.86654194401837	2871.8692826422857	-2.433013375639681	253.452572314866	3132.1433389092604	1032.080581333517	79.51712764799635	3070.402583810336	1088.4755835202168	30.03985487241506	3003.3015083514942	1140.1670862059802	-25.30735409675289	2935.580412227016	1178.148373380968	-83.67551634948205	2862.0675577630723	1219.1957384115392	-144.3566003846925	2793.4486637042187	1256.9518423005509	-197.0114054145134	2654.3138880795013	1334.3290701726323	-205.59350386091182	2906.621283634784	1205.9472743371807	-148.10696917797887	2964.578555018176	1189.7551205758555	-259.4630229937893	3036.385093669104	939.0076958562355	-280.4010269242165	3039.285819288539	812.9286419344797	-475.9412562307154	3045.597306593924	826.3971192811978	-500.6748792930877	3030.831326824349	831.6047998366552	-526.380277728501	3020.4441801971225	831.8846259041808	-544.3953222258486	3011.6957966864597	829.2547971425083	-559.5110349440419	3048.0417862696736	815.5262110601936	-503.7452670956462	3051.3410316516306	807.5554753435007	-544.9573439837229	3041.6791629482946	802.5920256095056	-571.5367444539303	3028.9375158761686	803.1712504381301	-583.6177622884878	3013.848380703755	806.1228305011144	-590.6200175813091	3047.075404628566	806.7285937411302	-502.5205434141057	3049.774081138865	794.1953763963521	-542.0557055194605	3039.0779126702378	787.645018352469	-570.7612195359715	3023.6320709531824	787.7995549925586	-585.1935579742722	3007.0860817011867	790.7645306782322	-592.785785481736	3046.42985950272	800.6870864526471	-500.63387770527873	3048.6432053641597	784.1243778815387	-534.5160746140886	3039.1582512586533	777.2758297658942	-559.168780105837	3024.173397153402	776.8199009499789	-572.8949408198289	3008.575180471091	779.3210331163259	-579.9411500085697	3044.633940242552	794.1863549326064	-497.02698471980995	3045.965240358128	774.8862710399196	-525.9947737829401	3038.106547807384	767.6973158960733	-545.0150079448881	3027.049073270066	766.5400513773416	-554.6782799962803	3013.158234758642	768.2810162266252	-560.7194253488502	2866.2660047238137	1205.3565185604614	-99.11676153749723	2816.001627741087	1148.035150540954	2.299438233249109	2942.7759017291096	987.5367143775684	-161.5454251512937	3029.5290522238765	873.2087121341171	-366.63243005402535	3055.222003743513	883.607807323117	-383.36518922529854	3090.407954292569	874.2294778741614	-392.26070964405255	3114.126221817382	864.6150362583123	-399.3735197750516	3133.22737236623	853.962152884486	-406.0884626540576	3053.978688669549	874.6187897270686	-389.62994814985365	3091.8360413515998	860.5297576768828	-421.9496811204471	3122.3782298634937	844.7964183803272	-436.75519329646414	3141.3721920896783	835.3656393697185	-438.4853374534698	3157.097463631514	827.7962969143822	-434.875638667181	3050.7248276497116	866.4411006504787	-390.63644658600197	3085.8885396426886	848.2774575338906	-422.7067483464267	3118.6692482928743	830.0685211565501	-438.8808791108521	3141.3223267829126	818.191217816539	-440.97702540640444	3158.4010392901823	809.6661999541677	-437.03162865804836	3047.419697305375	861.0603332122186	-390.6132625151301	3075.9466412953116	840.2201456304117	-419.59923339574885	3103.9044771706012	823.3136464628379	-433.66390130005544	3125.429123836832	811.3071249763976	-435.668386183368	3141.3329107780514	803.0308666642527	-431.9504546138995	3042.8304091587734	854.9735132447306	-388.93748605922246	3066.0431487884043	832.2269236419237	-414.8041555723879	3087.348806537532	817.1639035519211	-425.88842748051184	3102.5256021109603	807.668640009431	-427.2643098193059	3116.312563892778	799.9126890332653	-423.92122080431733
136	0.563	3198.941	914.58397	126.699	3253.9096309405713	896.7667548011747	53.11674231165454	3158.6780012032823	500.3484538805977	-43.23998609032359	3141.40581994423	108.87427992256724	-118.95001496165516	2989.8566896784337	32.163898871270725	-31.27732447630588	3158.311237009192	906.2284735331531	211.59698318203422	3066.797079039837	504.3120394979443	285.731249245763	2993.395808980801	79.93055135089816	375.76111084503884	2871.8540796617062	-2.412827285569218	253.34388373321852	3132.168703948203	1032.0896465432747	79.50739543063551	3070.435373295981	1088.4714669327677	30.006829530130815	3003.3393508528025	1140.1450516018117	-25.362705200147364	2935.61760352403	1178.102807704745	-83.74594315488241	2862.104036609922	1219.1251998548757	-144.44352660006732	2793.4860916729126	1256.8617832454397	-197.113741034042	2654.374577930642	1334.2658860537833	-205.76184655149686	2906.6206024597545	1205.8062614926016	-148.19433969371767	2964.412153397993	1189.3687220504012	-259.406873329251	3035.831207712455	938.9340476905837	-279.69484094523654	3038.4239310330863	812.299754646423	-474.41891735431676	3044.711205528645	825.7942988975338	-499.0261440644114	3030.007093634712	831.016885922422	-524.6159804468294	3019.6638801667837	831.3046714966646	-542.555264507231	3010.9528472259926	828.679406359845	-557.6118545082293	3047.1475427361484	814.9178525369038	-502.100117642838	3050.439304690274	806.9662583297875	-543.1494740462292	3040.8200991093727	802.0121199678333	-569.6248559233237	3028.131142721443	802.5954203909008	-581.6550498146929	3013.1032686072163	805.5492170828361	-588.6245758624932	3046.1860043306915	806.1127929402576	-500.8943250595755	3048.8799877628953	793.5942211224924	-540.2810110980237	3038.2310966046907	787.0529746036274	-568.876057900006	3022.8491707477624	787.2119239619739	-583.2485358935694	3006.3703812931944	790.1790807500258	-590.8056612382483	3045.543590206276	800.0655672830233	-499.02509060719945	3047.7540375390518	783.5111040343772	-532.7890773921914	3038.3110421981073	776.6694017369189	-557.3488384209677	3023.3882388586917	776.2171477345557	-571.0190326851946	3007.8533968194683	778.7200557333598	-578.0330773744613	3043.755293011063	793.5574647547363	-495.44375279677564	3045.087013643281	774.2605019135082	-524.3185033123605	3037.2631097916924	767.0752830049527	-543.2700366756762	3026.2514710147057	765.9198541181327	-552.8952567814478	3012.417102549525	767.6619059767111	-558.9095031866898	2866.3419078926554	1205.3753629347484	-99.19308046995715	2816.1740695684944	1148.3842937581155	2.2329987690855577	2942.51376524367	987.7089373754511	-160.99813530475532	3028.914683734977	873.7249323378785	-365.6958461741434	3054.4909753016755	884.0885607237907	-382.37299609805285	3089.5347671916993	874.6783958855109	-391.2806764952925	3113.155438431082	865.0439545650903	-398.40020587028323	3132.1764271637912	854.3762547861677	-405.1192530017065	3053.24297303489	875.1038301011837	-388.6177879865117	3090.915801467343	860.9762371781565	-420.8527413985791	3121.324310655358	845.2173492730357	-435.64514860086956	3140.245447434506	835.7726160507723	-437.400341824924	3155.917377629374	828.1930252619795	-433.83376770666973	3049.9990995304247	866.9334473964249	-389.62465860614395	3084.98823653666	848.7361459883352	-421.61245728074397	3117.6249839621487	830.5004213991364	-437.77267016573865	3140.1911178495184	818.6068060863277	-439.8992196011681	3157.2119116427893	810.0708289215422	-436.0010980704282	3046.7057606294447	861.558819594852	-389.603407348192	3075.0865619366637	840.6937781630403	-418.5156697367669	3102.92114782992	823.7650986122824	-432.5687315747333	3124.363111640512	811.7434628408313	-434.602822736082	3140.2130007694986	803.4571941179396	-430.9294739887246	3042.1352041763084	855.4802446197324	-387.93620764223766	3065.2254775376764	832.7159080226352	-413.7388746376784	3086.4365525708868	817.637056750089	-424.8149985092871	3101.5550280042244	808.1317034992832	-426.21302883607416	3115.295389282929	800.3674223126685	-422.909751441046
137	0.567	3198.941	914.58397	126.699	3253.873800339927	896.7299125163288	53.108583791895406	3158.6317905765713	500.3173670659835	-43.25882631653037	3141.408220230793	108.84497825801449	-118.97948121876331	2989.862600826651	32.13071565304301	-31.304100678591652	3158.341636802463	906.2636475332218	211.60748638872195	3066.819910560275	504.3414479379291	285.70056845433174	2993.3782496365097	79.95493246104238	375.6617464851071	2871.840863760698	-2.3903226994481384	253.24153191604393	3132.1945363786067	1032.0988686016362	79.49742242453014	3070.469108942024	1088.468044739456	29.973576471920186	3003.378710947014	1140.124559287953	-25.41817774771544	2935.6569330007105	1178.060034695634	-83.81636577970146	2862.1432985412152	1219.058746058199	-144.53033206354644	2793.5268690872867	1256.7769520533327	-197.21586571009226	2654.438171524609	1334.2071900084065	-205.92651353167054	2906.622344547845	1205.6687202092025	-148.28123920118145	2964.2445736620853	1188.9873704925014	-259.3500177758379	3035.2165836484387	938.8253388082354	-278.92971479547043	3037.4960098822094	811.7340421858775	-472.8437033001489	3043.7600367737123	825.2496009999078	-497.32574976280097	3029.1186799815773	830.4834264504949	-522.7993773490459	3018.8198254899175	830.7767405505539	-540.6617948578057	3010.1463336338097	828.1541182607863	-555.6577792030295	3046.1875878961764	814.3674062881415	-500.40104809987855	3049.471832896612	806.428191664009	-541.2837516532946	3039.895499094494	801.4796727728926	-567.652497711593	3027.259649266892	802.0657340601805	-579.6311452350517	3012.2935737512007	805.0213205594898	-586.567954252362	3045.230382239612	805.5555241257285	-499.2125458002266	3047.919363804973	793.045337403377	-538.4460328597346	3037.3179105501445	786.5092790014791	-566.9275528998697	3022.000370386996	786.6711051753588	-581.2392009431968	3005.589353317236	789.6400003902069	-588.761190142659	3044.590735647006	799.5031799418356	-497.3596774933761	3046.7976815331217	782.9518400059992	-531.0002785009741	3037.396717260062	776.1136809285916	-555.4642278087647	3022.536381723865	775.6636825884964	-569.077414056523	3007.0654356051496	778.167979898664	-576.059211629683	3042.8096711684384	792.9886785158551	-493.80283054348405	3044.14100711214	773.6906999776531	-522.579117044875	3036.351846529668	766.5067781864866	-541.4593634234889	3025.3862977338035	765.3522488900658	-551.0456314113309	3011.608832383883	767.0951026639212	-557.0328248487996	2866.420529633078	1205.398038145198	-99.26971826569806	2816.3482496037636	1148.7419465839878	2.16675582800047	2942.2438569880887	987.8686970423714	-160.43692445010035	3028.2245501639995	874.0520929873469	-364.6945998130216	3053.6902003841737	884.3724119923212	-381.3258094906679	3088.589571098639	874.9192553661969	-390.2499927374448	3112.1097551796634	865.2565244041975	-397.37849230089915	3131.047046679937	854.5666519570383	-404.102858474246	3052.4338342568185	875.3893920305076	-387.54919393523676	3089.918732082491	861.2053430814738	-419.70714762155825	3120.1885931876263	845.408402991454	-434.4894878296731	3139.0337250962084	835.9437271177329	-436.2703408478805	3154.64962153469	828.3501353436931	-432.74653473796593	3049.196365835378	867.2255201241143	-388.5539493980083	3084.005668307729	848.9766757947258	-420.4654888055767	3116.492567723768	830.7004721569734	-436.61474229415404	3138.9676978975804	818.7832974018365	-438.7722606590146	3155.927518530524	810.23224419192	-434.9209411146832	3045.912391285353	861.8569201686716	-388.5326958358992	3074.14027969388	840.950880632088	-417.3752257430875	3101.846017499243	823.9880679343114	-431.41888593824075	3123.2011351978513	811.9443167103288	-433.48293017485594	3138.99413694681	803.6441616611567	-429.85362511610754	3041.3577332857603	855.787030396093	-386.8714546072231	3064.317640255768	832.9903835693876	-412.6122235702599	3085.428950516832	817.8861694047814	-423.6813630353522	3100.4857307747534	808.3656388339241	-425.10150339205904	3114.176648581354	800.589605125597	-421.8373923915224
138	0.571	3198.941	914.58397	126.699	3253.8356831649508	896.6908839263772	53.09942211457728	3158.5832280054433	500.2842908369585	-43.27938942674047	3141.409149925762	108.81364373650536	-119.01041496561295	2989.866910922565	32.09567662479129	-31.33241383660644	3158.3742054890135	906.3009913904535	211.61909940167385	3066.844839693491	504.3744913125667	285.6786362336334	2993.3621766721926	79.98312360629423	375.5713850810411	2871.8293000193635	-2.3648536498180084	253.14858499980912	3132.220995130313	1032.1082665495007	79.48702865649763	3070.5046652869855	1088.466749529861	29.940632489062484	3003.4213477449925	1140.1089345181986	-25.47253604309411	2935.701323217908	1178.0261718782021	-83.88505238303857	2862.189448701246	1219.0053443537008	-144.614762067048	2793.576084903651	1256.708706101999	-197.31508034736854	2654.508773435398	1334.1625203370183	-206.08421152756682	2906.6308484315664	1205.544681407126	-148.36452697414398	2964.0795915177673	1188.6206231843948	-259.28942748626247	3034.5387145998775	938.687129484875	-278.0983657857083	3036.500402809021	811.315677507191	-471.21915556135025	3042.7427882314955	824.8466714613868	-495.57876627730394	3028.165356826645	830.0871458670777	-520.9367461492614	3017.9114201491525	830.3828178537036	-538.721874571049	3009.2757160226197	827.7602172463156	-553.6562054402746	3045.160764106559	813.9581141846629	-498.6527082346376	3048.4378680182085	806.0227499553217	-539.3659178750594	3038.9047640089793	801.0749522732118	-565.6261477315433	3026.322475516665	801.6619394728276	-577.5530158326209	3011.418731962222	804.6186135494914	-584.4575462184049	3044.207185675412	805.1398252765671	-497.47938798639194	3046.891150499394	792.6299292058717	-536.5557647764224	3036.3374314963444	786.093797948429	-564.9214372741217	3021.084780714218	786.2563274395651	-579.1718450390075	3004.742097676832	789.226212041285	-586.6591151141538	3043.5697959403856	799.0828623303466	-495.6414621051551	3045.7727761310075	782.5277894503845	-529.1539159813242	3036.414005266641	775.6886864917273	-553.5197622981585	3021.6165722488226	775.23889970104	-567.0754022154691	3006.2100258520527	777.7439069834959	-574.0252769954442	3041.79538520759	792.5628795789618	-492.1076012943268	3043.1255450821254	773.2581196718044	-520.780105185142	3035.371109680372	766.0720857711174	-539.5868317973978	3024.451896252013	764.9170537073584	-549.133562355631	3010.731739201413	766.6601589314422	-555.093879330499	2866.5049163637023	1205.430467240609	-99.34565716164064	2816.5265437118715	1149.1142929384241	2.101528445331269	2941.970062188462	988.0237103060246	-159.86112366318469	3027.456117374936	874.1635187731181	-363.6201934813962	3052.81631288591	884.4336664736329	-380.2149287512812	3087.569361978993	874.9279151932685	-389.15879783194526	3110.986615596689	865.2296010519958	-396.2976072107789	3129.8372147705036	854.5109570792827	-403.0276589943964	3051.548463056473	875.4494923671483	-386.41513287530677	3088.8426202847513	861.192142779884	-418.5024164818359	3118.969639642538	845.3457601437858	-433.27641304593135	3137.7360613371698	835.8560433400066	-435.0827483341018	3153.2936187552486	828.2455682359201	-431.6007208009989	3048.3143452201934	867.2910845449925	-387.4150403557142	3082.9394207341425	848.9737011972794	-419.2550171030405	3115.2714993235636	830.6445064589032	-435.394807049264	3137.652171367664	818.6975814143377	-437.5828957856207	3154.5484038123973	810.1282792630751	-433.77720604392744	3045.0376634354725	861.9281921654102	-387.39171500652566	3073.1069478486484	840.9656131990423	-416.1669915408469	3100.6791044164975	823.9577037053905	-430.20215346262177	3121.943832304059	811.8858348331601	-432.2955533084364	3137.6773874940536	803.5687954607024	-428.7090890180758	3040.496480909591	855.8671904177602	-385.73368438214584	3063.3193566932196	833.024062892423	-411.4132135700362	3084.3265146478393	817.8856839682221	-422.47545584845307	3099.318725896287	808.3455869589421	-423.9169629398785	3112.957766931213	800.5551387433796	-420.690775500883
